<?xml version="1.0" standalone="no"?><!DOCTYPE svg PUBLIC "-//W3C//DTD SVG 1.1//EN" "http://www.w3.org/Graphics/SVG/1.1/DTD/svg11.dtd"><svg t="1744657377274" class="icon" viewBox="0 0 1024 1024" version="1.1" xmlns="http://www.w3.org/2000/svg" p-id="15832" xmlns:xlink="http://www.w3.org/1999/xlink" width="200" height="200"><path d="M502.408533 120.695467c11.946667 0 22.152533 3.976533 30.685867 11.946666 7.9872 8.533333 11.963733 18.756267 11.963733 30.702934s-3.976533 21.896533-11.963733 29.8496c-8.533333 8.533333-18.756267 12.8-30.685867 12.8s-21.896533-4.266667-29.8496-12.8c-8.533333-7.953067-12.8-17.902933-12.8-29.8496 0-11.946667 4.266667-22.1696 12.8-30.702934 7.953067-7.970133 17.902933-11.946667 29.8496-11.946666z m-42.6496 162.065066c0-11.946667 4.266667-22.1696 12.8-30.702933 7.953067-7.953067 17.902933-11.946667 29.8496-11.946667s22.152533 3.976533 30.685867 11.946667c7.9872 8.533333 11.963733 18.756267 11.963733 30.702933s-3.976533 21.896533-11.963733 29.8496c-8.533333 8.533333-18.756267 12.8-30.685867 12.8s-21.896533-4.266667-29.8496-12.8c-8.533333-7.953067-12.8-17.902933-12.8-29.8496zM246.510933 598.3744c11.946667 0 22.1696 3.959467 30.702934 11.9296 7.970133 8.533333 11.946667 18.773333 11.946666 30.702933 0 11.946667-3.976533 21.896533-11.946666 29.866667-8.533333 8.533333-18.756267 12.8-30.702934 12.8s-21.896533-4.266667-29.866666-12.8c-8.533333-7.970133-12.8-17.92-12.8-29.866667 0-11.9296 4.266667-22.1696 12.8-30.702933 7.9872-7.970133 17.92-11.9296 29.866666-11.9296z m168.0384 11.9296c7.970133 8.533333 11.946667 18.773333 11.946667 30.702933 0 11.946667-3.976533 21.896533-11.946667 29.866667-8.533333 8.533333-18.773333 12.8-30.702933 12.8-11.9296 0-21.896533-4.266667-29.866667-12.8-8.533333-7.970133-12.8-17.92-12.8-29.866667 0-11.9296 4.266667-22.1696 12.8-30.702933 7.970133-7.970133 17.92-11.9296 29.866667-11.9296 11.9296 0 22.186667 3.959467 30.702933 11.9296z m0 118.562133c7.970133 8.533333 11.946667 18.773333 11.946667 30.72 0 11.9296-3.976533 21.879467-11.946667 29.8496-8.533333 8.533333-18.773333 12.8-30.702933 12.8-11.9296 0-21.896533-4.266667-29.866667-12.8-8.533333-7.970133-12.8-17.92-12.8-29.8496 0-11.946667 4.266667-22.186667 12.8-30.72 7.970133-7.970133 17.92-11.9296 29.866667-11.9296 11.9296 0 22.186667 3.959467 30.702933 11.9296z m87.8592-11.9296c11.946667 0 22.152533 3.959467 30.685867 11.9296 7.9872 8.533333 11.963733 18.773333 11.963733 30.72 0 11.9296-3.976533 21.879467-11.963733 29.8496-8.533333 8.533333-18.756267 12.8-30.685867 12.8s-21.896533-4.266667-29.8496-12.8c-8.533333-7.970133-12.8-17.92-12.8-29.8496 0-11.946667 4.266667-22.186667 12.8-30.72 7.953067-7.970133 17.902933-11.9296 29.8496-11.9296z m0 119.415467c11.946667 0 22.152533 3.9424 30.685867 11.9296 7.9872 8.533333 11.963733 18.7904 11.963733 30.72s-3.976533 21.879467-11.963733 29.8496c-8.533333 8.533333-18.756267 12.8-30.685867 12.8s-21.896533-4.266667-29.8496-12.8c-8.533333-7.970133-12.8-17.92-12.8-29.8496s4.266667-22.186667 12.8-30.72c7.953067-7.9872 17.902933-11.9296 29.8496-11.9296z m89.565867-46.916267c-8.4992-7.970133-12.765867-17.92-12.765867-29.8496 0-11.946667 4.266667-22.186667 12.765867-30.72 7.970133-7.970133 17.937067-11.9296 29.866667-11.9296s22.1696 3.959467 30.702933 11.9296c7.9872 8.533333 11.963733 18.773333 11.963733 30.72 0 11.9296-3.976533 21.879467-11.963733 29.8496-8.533333 8.533333-18.773333 12.8-30.702933 12.8-11.9808 0-21.9136-4.266667-29.866667-12.8z m-119.415467-417.962666c7.953067-7.953067 17.902933-11.946667 29.8496-11.946667s22.152533 3.976533 30.685867 11.946667c7.9872 8.533333 11.963733 18.756267 11.963733 30.702933s-3.976533 21.896533-11.963733 29.8496c-8.533333 8.533333-18.756267 12.8-30.685867 12.8s-21.896533-4.266667-29.8496-12.8c-8.533333-7.953067-12.8-17.902933-12.8-29.8496 0-11.946667 4.266667-22.1696 12.8-30.702933z m29.8496 107.4688c11.946667 0 22.152533 3.976533 30.685867 11.946666 7.9872 8.533333 11.963733 18.756267 11.963733 30.702934 0 11.9296-3.976533 21.896533-11.963733 29.866666-8.533333 8.4992-18.756267 12.765867-30.685867 12.765867s-21.896533-4.266667-29.8496-12.765867c-8.533333-7.970133-12.8-17.937067-12.8-29.866666 0-11.963733 4.266667-22.1696 12.8-30.702934 7.953067-7.970133 17.902933-11.946667 29.8496-11.946666z m-29.8496 131.362133c7.953067-7.970133 17.902933-11.9296 29.8496-11.9296s22.152533 3.959467 30.685867 11.9296c7.9872 8.533333 11.963733 18.773333 11.963733 30.702933 0 11.946667-3.976533 21.896533-11.963733 29.866667-8.533333 8.533333-18.756267 12.8-30.685867 12.8s-21.896533-4.266667-29.8496-12.8c-8.533333-7.970133-12.8-17.92-12.8-29.866667s4.266667-22.1696 12.8-30.702933z m149.282134-11.9296c11.9296 0 22.1696 3.959467 30.702933 11.9296 7.9872 8.533333 11.963733 18.773333 11.963733 30.702933 0 11.946667-3.976533 21.896533-11.963733 29.866667-8.533333 8.533333-18.773333 12.8-30.702933 12.8s-21.896533-4.266667-29.866667-12.8c-8.4992-7.970133-12.765867-17.92-12.765867-29.866667 0-11.9296 4.266667-22.1696 12.765867-30.702933 7.953067-7.970133 17.885867-11.9296 29.866667-11.9296z m136.465066 0c11.946667 0 22.203733 3.959467 30.702934 11.9296 7.9872 8.533333 11.963733 18.773333 11.963733 30.702933 0 11.946667-3.976533 21.896533-11.963733 29.866667a41.813333 41.813333 0 0 1-30.702934 12.8c-11.9296 0-21.8624-4.266667-29.832533-12.8-8.533333-7.970133-12.8-17.92-12.8-29.866667 0-11.9296 4.266667-22.1696 12.8-30.702933 7.918933-7.970133 17.885867-11.9296 29.832533-11.9296z" p-id="15833" fill="#ffffff"></path></svg>