<?xml version="1.0" standalone="no"?><!DOCTYPE svg PUBLIC "-//W3C//DTD SVG 1.1//EN" "http://www.w3.org/Graphics/SVG/1.1/DTD/svg11.dtd"><svg t="1744657646540" class="icon" viewBox="0 0 1024 1024" version="1.1" xmlns="http://www.w3.org/2000/svg" p-id="24909" xmlns:xlink="http://www.w3.org/1999/xlink" width="200" height="200"><path d="M512 128C300.288 128 128 300.288 128 512s172.288 384 384 384 384-172.288 384-384S723.712 128 512 128z m0 64c177.12 0 320 142.88 320 320a319.264 319.264 0 0 1-272.384 316.128v-222.816h91.136l14.304-92.576h-105.44v-50.56c0-38.4 12.64-72.544 48.576-72.544h57.76V308.864c-10.144-1.376-31.616-4.352-72.192-4.352-84.736 0-134.4 44.736-134.4 146.688v61.536h-87.104v92.576h87.104v222.016A319.2 319.2 0 0 1 192 512c0-177.12 142.88-320 320-320z" p-id="24910" fill="#000000"></path></svg>